<svg width="23" height="22" viewBox="0 0 23 22" fill="none" xmlns="http://www.w3.org/2000/svg">
<path d="M14.8541 22C13.5284 22 12.2944 21.6417 11.152 20.925C10.0097 20.2083 9.13539 19.25 8.52909 18.05C8.40131 17.7667 8.33742 17.4793 8.33742 17.188C8.33742 16.8967 8.41728 16.6173 8.577 16.35C8.73672 16.0827 8.94436 15.8743 9.19992 15.725C9.45547 15.5757 9.73499 15.5007 10.0385 15.5H16.0041C16.0201 15.3167 16.0322 15.1377 16.0405 14.963C16.0488 14.7883 16.0526 14.609 16.052 14.425C16.052 14.275 16.0482 14.121 16.0405 13.963C16.0328 13.805 16.0207 13.6507 16.0041 13.5H15.5489C15.2774 13.5 15.0496 13.404 14.8656 13.212C14.6816 13.02 14.5899 12.7827 14.5905 12.5C14.5912 12.2173 14.6832 11.98 14.8665 11.788C15.0499 11.596 15.2774 11.5 15.5489 11.5H19.2624C19.0388 11.1333 18.7753 10.8043 18.4718 10.513C18.1683 10.2217 17.8329 9.96734 17.4655 9.75C17.194 9.6 17.0103 9.38334 16.9145 9.1C16.8187 8.81667 16.8267 8.55 16.9385 8.3C17.0503 8.05 17.218 7.875 17.4416 7.775C17.6652 7.675 17.8808 7.68334 18.0885 7.8C19.3023 8.43334 20.2648 9.354 20.9759 10.562C21.687 11.77 22.0422 13.0827 22.0416 14.5C22.0416 16.5833 21.343 18.3543 19.9457 19.813C18.5485 21.2717 16.8513 22.0007 14.8541 22ZM12.578 19.45C12.4662 19.1167 12.3666 18.7917 12.279 18.475C12.1915 18.1583 12.1155 17.8333 12.051 17.5H10.4458C10.7173 17.9167 11.0326 18.2917 11.3916 18.625C11.7507 18.9583 12.1462 19.2333 12.578 19.45ZM14.8541 19.8C15.0458 19.4333 15.2096 19.0583 15.3457 18.675C15.4818 18.2917 15.5974 17.9 15.6926 17.5H14.0155C14.1114 17.9 14.2312 18.2917 14.3749 18.675C14.5187 19.0583 14.6784 19.4333 14.8541 19.8ZM17.1301 19.45C17.5614 19.2333 17.9569 18.9583 18.3165 18.625C18.6762 18.2917 18.9915 17.9167 19.2624 17.5H17.6572C17.5773 17.8333 17.4975 18.1583 17.4176 18.475C17.3378 18.7917 17.2419 19.1167 17.1301 19.45ZM17.9208 15.5H20.0291C20.061 15.3333 20.085 15.1707 20.101 15.012C20.1169 14.8533 20.1249 14.6827 20.1249 14.5C20.1249 14.3173 20.1169 14.1463 20.101 13.987C20.085 13.8277 20.061 13.6653 20.0291 13.5H17.9208C17.9367 13.65 17.9489 13.8043 17.9572 13.963C17.9655 14.1217 17.9693 14.2757 17.9687 14.425C17.9687 14.6083 17.9648 14.7877 17.9572 14.963C17.9495 15.1383 17.9374 15.3173 17.9208 15.5ZM8.14575 15C6.14922 15 4.45202 14.271 3.05413 12.813C1.65624 11.355 0.957614 9.584 0.958252 7.5C0.958891 5.416 1.65784 3.64534 3.05509 2.188C4.45234 0.730669 6.14922 0.00133516 8.14575 1.82482e-06C10.1423 -0.00133151 11.8395 0.728002 13.2374 2.188C14.6353 3.648 15.3339 5.41867 15.3333 7.5C15.3326 9.58134 14.634 11.3523 13.2374 12.813C11.8408 14.2737 10.1436 15.0027 8.14575 15ZM8.14575 13C9.59923 13 10.8412 12.4627 11.8718 11.388C12.9023 10.3133 13.4172 9.01733 13.4166 7.5C13.4159 5.98267 12.901 4.687 11.8718 3.613C10.8425 2.539 9.6005 2.00134 8.14575 2C6.691 1.99867 5.44932 2.53633 4.42071 3.613C3.3921 4.68967 2.87684 5.98534 2.87492 7.5C2.873 9.01467 3.38827 10.3107 4.42071 11.388C5.45316 12.4653 6.69484 13.0027 8.14575 13ZM5.74992 7C6.02145 7 6.24921 6.904 6.43321 6.712C6.61721 6.52 6.70889 6.28267 6.70825 6C6.70761 5.71734 6.61561 5.48 6.43225 5.288C6.24889 5.096 6.02145 5 5.74992 5C5.47839 5 5.25095 5.096 5.06759 5.288C4.88422 5.48 4.79222 5.71734 4.79159 6C4.79095 6.28267 4.88295 6.52034 5.06759 6.713C5.25222 6.90567 5.47967 7.00134 5.74992 7ZM8.14575 11.4C8.91242 11.4 9.59539 11.175 10.1947 10.725C10.7939 10.275 11.229 9.7 11.4999 9H4.79159C5.06311 9.7 5.49852 10.275 6.09779 10.725C6.69707 11.175 7.37972 11.4 8.14575 11.4ZM10.5416 7C10.8131 7 11.0409 6.904 11.2249 6.712C11.4089 6.52 11.5006 6.28267 11.4999 6C11.4993 5.71734 11.4073 5.48 11.2239 5.288C11.0406 5.096 10.8131 5 10.5416 5C10.2701 5 10.0426 5.096 9.85925 5.288C9.67589 5.48 9.58389 5.71734 9.58325 6C9.58261 6.28267 9.67461 6.52034 9.85925 6.713C10.0439 6.90567 10.2713 7.00134 10.5416 7Z" fill="black"/>
</svg>
