<svg width="20" height="19" viewBox="0 0 20 19" fill="none" xmlns="http://www.w3.org/2000/svg">
<path fill-rule="evenodd" clip-rule="evenodd" d="M6.838 -5.8413e-06C6.76364 -0.000748909 6.69006 0.0151026 6.6226 0.0463941L0.2894 2.98859C0.202939 3.02875 0.129758 3.09278 0.0784833 3.17315C0.0272088 3.25351 -2.21226e-05 3.34686 1.34859e-08 3.44219V17.5C-1.94974e-05 17.584 0.0211319 17.6667 0.0615008 17.7404C0.10187 17.814 0.160154 17.8764 0.230972 17.9216C0.301789 17.9668 0.382855 17.9934 0.466684 17.999C0.550513 18.0046 0.634401 17.989 0.7106 17.9536L6.8332 15.1094L12.9558 17.9534C13.0218 17.9841 13.0938 18 13.1666 18C13.2394 18 13.3114 17.9841 13.3774 17.9534L16.4654 16.5192L17.7778 18.7922C17.8477 18.9131 17.987 18.9873 18.1652 18.9984C18.3433 19.0095 18.5457 18.9567 18.7278 18.8516C18.9099 18.7464 19.0568 18.5976 19.1362 18.4377C19.2156 18.2779 19.221 18.1201 19.1512 17.9992L17.9092 15.848L19.7106 15.0114C19.7971 14.9712 19.8702 14.9072 19.9215 14.8268C19.9728 14.7465 20 14.6531 20 14.5578V0.499994C20 0.415979 19.9789 0.333313 19.9385 0.259632C19.8981 0.18595 19.8398 0.123629 19.769 0.0784238C19.6982 0.0332187 19.6171 0.00658731 19.5333 0.000989223C19.4495 -0.00460887 19.3656 0.0110068 19.2894 0.0463941L13.1668 2.89059L7.0442 0.0465941C6.97951 0.0165142 6.90934 0.000625172 6.838 -5.8413e-06ZM7.129 1.18859L12.8642 3.85319L12.863 4.03159C12.0498 4.05652 11.2556 4.28281 10.5514 4.69019C8.1884 6.05459 7.3746 9.09219 8.7388 11.455C9.6138 12.9706 11.1756 13.8438 12.8068 13.9156L12.7904 16.7742L7.0554 14.11L7.129 1.18859ZM6.529 1.19259L6.455 14.1826L1 16.7162V3.76139L6.529 1.19259ZM19 1.28359V14.239L17.4074 14.979L16.7086 13.7688C16.6705 13.7027 16.6112 13.6498 16.5349 13.6139C16.4585 13.578 16.3669 13.5599 16.2664 13.5608L15.9296 12.9782C17.9544 11.5104 18.5938 8.71459 17.3168 6.50279C16.6348 5.32119 15.534 4.52719 14.3086 4.19879C14.0316 4.12504 13.7487 4.07526 13.4632 4.04999L13.4644 3.85499L19 1.28359ZM12.926 5.12539C13.2968 5.11548 13.6671 5.15927 14.0254 5.25539C14.5144 5.38621 14.9727 5.6124 15.374 5.92097C15.7753 6.22953 16.1116 6.61439 16.3636 7.05339C16.6176 7.49113 16.7827 7.97474 16.8493 8.47644C16.9159 8.97814 16.8828 9.48807 16.7518 9.97693C16.6209 10.4658 16.3946 10.924 16.0861 11.3252C15.7776 11.7264 15.3928 12.0627 14.954 12.3148C14.5162 12.5689 14.0325 12.7339 13.5308 12.8006C13.029 12.8672 12.519 12.8341 12.0301 12.7031C11.5412 12.5721 11.083 12.3458 10.6817 12.0372C10.2805 11.7287 9.94413 11.3439 9.692 10.905C9.43801 10.4672 9.27299 9.98357 9.20641 9.48184C9.13983 8.98011 9.17299 8.47017 9.304 7.98129C9.43501 7.49241 9.66128 7.03422 9.96983 6.63302C10.2784 6.23182 10.6631 5.89551 11.102 5.64339C11.6573 5.32126 12.2843 5.14318 12.926 5.12539ZM15.04 13.4918L15.3766 14.075C15.3255 14.1615 15.2954 14.2499 15.2882 14.3339C15.2811 14.418 15.2971 14.4957 15.3352 14.5618L15.9632 15.6496L13.3902 16.845L13.407 13.905C13.971 13.8621 14.5234 13.7222 15.04 13.4918Z" fill="black"/>
</svg>
