<svg width="30" height="30" viewBox="0 0 30 30" fill="none" xmlns="http://www.w3.org/2000/svg">
<path d="M22.7812 3H8.34375C7.19853 3.00809 6.10214 3.46491 5.28999 4.27238C4.47784 5.07986 4.0147 6.17359 4 7.31875V26.125H22.7812C23.9351 26.125 25.0423 25.6693 25.8617 24.8569C26.6811 24.0445 27.1464 22.9413 27.1562 21.7875V7.31875C27.1415 6.1682 26.674 5.0698 25.8551 4.26146C25.0362 3.45311 23.9319 2.9999 22.7812 3ZM21.1125 21.0688C20.8057 21.07 20.5054 20.9801 20.2497 20.8106C19.994 20.641 19.7943 20.3994 19.676 20.1163C19.5578 19.8331 19.5262 19.5213 19.5853 19.2202C19.6444 18.9191 19.7915 18.6424 20.008 18.425C20.2245 18.2076 20.5007 18.0593 20.8016 17.999C21.1024 17.9387 21.4144 17.969 21.698 18.0861C21.9815 18.2033 22.224 18.4019 22.3946 18.657C22.5652 18.912 22.6562 19.2119 22.6562 19.5187C22.6571 19.722 22.6177 19.9234 22.5405 20.1114C22.4633 20.2995 22.3497 20.4704 22.2063 20.6144C22.0629 20.7584 21.8924 20.8727 21.7047 20.9506C21.517 21.0286 21.3158 21.0688 21.1125 21.0688Z" stroke="white" stroke-width="1.5" stroke-linecap="round" stroke-linejoin="round"/>
<path d="M14.3062 15C15.135 15 15.9298 15.3292 16.5159 15.9153C17.1019 16.5013 17.4312 17.2962 17.4312 18.125C17.4312 18.9538 17.1019 19.7487 16.5159 20.3347C15.9298 20.9208 15.135 21.25 14.3062 21.25H9.1499V8.75H14.3062C15.135 8.75 15.9298 9.07924 16.5159 9.66529C17.1019 10.2513 17.4312 11.0462 17.4312 11.875C17.4312 12.7038 17.1019 13.4987 16.5159 14.0847C15.9298 14.6708 15.135 15 14.3062 15ZM14.3062 15H9.1499" stroke="white" stroke-width="2" stroke-linecap="round" stroke-linejoin="round"/>
</svg>
