<svg width="25" height="24" viewBox="0 0 25 24" fill="none" xmlns="http://www.w3.org/2000/svg">
<path fill-rule="evenodd" clip-rule="evenodd" d="M12.5 12C14.373 12 16.07 12.62 17.315 13.487C18.498 14.312 19.5 15.538 19.5 16.857C19.5 17.581 19.191 18.181 18.704 18.627C18.246 19.048 17.648 19.321 17.032 19.507C15.801 19.88 14.18 20 12.5 20C10.82 20 9.199 19.88 7.968 19.507C7.352 19.321 6.754 19.048 6.295 18.627C5.81 18.182 5.5 17.582 5.5 16.858C5.5 15.539 6.502 14.313 7.685 13.488C8.93 12.62 10.627 12 12.5 12ZM12.5 14C11.06 14 9.757 14.48 8.83 15.127C7.841 15.817 7.5 16.519 7.5 16.857C7.5 17.161 7.852 17.351 8.172 17.471L8.377 17.541L8.547 17.593C9.487 17.877 10.867 18 12.5 18C14.008 18 15.299 17.895 16.228 17.656L16.532 17.569L16.722 17.509C17.065 17.392 17.5 17.195 17.5 16.857C17.5 16.519 17.159 15.817 16.17 15.127C15.244 14.481 13.94 14 12.5 14ZM19.5 13C20.544 13 21.492 13.345 22.193 13.833C22.833 14.28 23.5 15.023 23.5 15.929C23.5 17.264 22.203 17.742 21.037 17.909L20.737 17.946L20.448 17.971C20.402 17.974 20.356 17.9767 20.31 17.979C20.432 17.634 20.5 17.259 20.5 16.857C20.4996 16.5578 20.4637 16.2597 20.393 15.969C20.779 15.939 21.096 15.889 21.332 15.818C21.436 15.786 21.342 15.688 21.232 15.603L21.125 15.525L21.049 15.474C20.7489 15.2691 20.4104 15.1269 20.054 15.056C19.674 14.296 19.09 13.638 18.468 13.113C18.8069 13.038 19.1529 13.0001 19.5 13ZM5.5 13C5.857 13 6.203 13.04 6.532 13.113C5.91 13.638 5.326 14.296 4.946 15.056C4.58959 15.127 4.25117 15.2691 3.951 15.474L3.823 15.562C3.696 15.654 3.547 15.782 3.668 15.818C3.904 15.889 4.221 15.94 4.608 15.969C4.53651 16.2596 4.50025 16.5577 4.5 16.857C4.5 17.259 4.568 17.634 4.69 17.979L4.41 17.959L4.114 17.929C2.912 17.782 1.5 17.322 1.5 15.929C1.5 15.024 2.166 14.28 2.807 13.833C3.59986 13.2896 4.53878 12.9992 5.5 13ZM19 7C19.663 7 20.2989 7.26339 20.7678 7.73223C21.2366 8.20107 21.5 8.83696 21.5 9.5C21.5 10.163 21.2366 10.7989 20.7678 11.2678C20.2989 11.7366 19.663 12 19 12C18.337 12 17.7011 11.7366 17.2322 11.2678C16.7634 10.7989 16.5 10.163 16.5 9.5C16.5 8.83696 16.7634 8.20107 17.2322 7.73223C17.7011 7.26339 18.337 7 19 7ZM6 7C6.66304 7 7.29893 7.26339 7.76777 7.73223C8.23661 8.20107 8.5 8.83696 8.5 9.5C8.5 10.163 8.23661 10.7989 7.76777 11.2678C7.29893 11.7366 6.66304 12 6 12C5.33696 12 4.70107 11.7366 4.23223 11.2678C3.76339 10.7989 3.5 10.163 3.5 9.5C3.5 8.83696 3.76339 8.20107 4.23223 7.73223C4.70107 7.26339 5.33696 7 6 7ZM12.5 3C13.5609 3 14.5783 3.42143 15.3284 4.17157C16.0786 4.92172 16.5 5.93913 16.5 7C16.5 8.06087 16.0786 9.07828 15.3284 9.82843C14.5783 10.5786 13.5609 11 12.5 11C11.4391 11 10.4217 10.5786 9.67157 9.82843C8.92143 9.07828 8.5 8.06087 8.5 7C8.5 5.93913 8.92143 4.92172 9.67157 4.17157C10.4217 3.42143 11.4391 3 12.5 3ZM19 9C18.8674 9 18.7402 9.05268 18.6464 9.14645C18.5527 9.24021 18.5 9.36739 18.5 9.5C18.5 9.63261 18.5527 9.75979 18.6464 9.85355C18.7402 9.94732 18.8674 10 19 10C19.1326 10 19.2598 9.94732 19.3536 9.85355C19.4473 9.75979 19.5 9.63261 19.5 9.5C19.5 9.36739 19.4473 9.24021 19.3536 9.14645C19.2598 9.05268 19.1326 9 19 9ZM6 9C5.86739 9 5.74021 9.05268 5.64645 9.14645C5.55268 9.24021 5.5 9.36739 5.5 9.5C5.5 9.63261 5.55268 9.75979 5.64645 9.85355C5.74021 9.94732 5.86739 10 6 10C6.13261 10 6.25979 9.94732 6.35355 9.85355C6.44732 9.75979 6.5 9.63261 6.5 9.5C6.5 9.36739 6.44732 9.24021 6.35355 9.14645C6.25979 9.05268 6.13261 9 6 9ZM12.5 5C11.9696 5 11.4609 5.21071 11.0858 5.58579C10.7107 5.96086 10.5 6.46957 10.5 7C10.5 7.53043 10.7107 8.03914 11.0858 8.41421C11.4609 8.78929 11.9696 9 12.5 9C13.0304 9 13.5391 8.78929 13.9142 8.41421C14.2893 8.03914 14.5 7.53043 14.5 7C14.5 6.46957 14.2893 5.96086 13.9142 5.58579C13.5391 5.21071 13.0304 5 12.5 5Z" fill="black"/>
</svg>
