<svg width="40" height="40" viewBox="0 0 46 43" fill="none" xmlns="http://www.w3.org/2000/svg">
<g clip-path="url(#clip0_715_1157)">
<path d="M42.1666 22.6945C41.9985 22.6954 41.8318 22.6652 41.6761 22.6058C41.5204 22.5464 41.3788 22.4588 41.2594 22.3481L23 5.26752L4.74051 22.3481C4.49607 22.5438 4.18164 22.646 3.86005 22.6344C3.53847 22.6228 3.23341 22.4982 3.00585 22.2854C2.77828 22.0727 2.64497 21.7876 2.63254 21.4869C2.62012 21.1863 2.72951 20.8924 2.93884 20.6639L22.1055 2.74724C22.3449 2.52477 22.6688 2.3999 23.0063 2.3999C23.3439 2.3999 23.6678 2.52477 23.9072 2.74724L43.0738 20.6639C43.2497 20.8316 43.3687 21.044 43.4161 21.2746C43.4636 21.5052 43.4372 21.7437 43.3404 21.9604C43.2436 22.177 43.0806 22.3622 42.8719 22.4928C42.6631 22.6233 42.4178 22.6935 42.1666 22.6945Z" fill="white"/>
<path d="M23.0001 9.30469L7.66675 23.6858V38.2222C7.66675 38.8558 7.93599 39.4634 8.41525 39.9114C8.89451 40.3594 9.54453 40.6111 10.2223 40.6111H19.1667V28.6666H26.8334V40.6111H35.7779C36.4556 40.6111 37.1056 40.3594 37.5849 39.9114C38.0642 39.4634 38.3334 38.8558 38.3334 38.2222V23.6022L23.0001 9.30469Z" fill="white"/>
</g>
<defs>
<clipPath id="clip0_715_1157">
<rect width="46" height="43" fill="white"/>
</clipPath>
</defs>
</svg>
