<svg width="12" height="16" viewBox="0 0 12 16" fill="none" xmlns="http://www.w3.org/2000/svg">
<path d="M2.875 3.625C2.875 2.7962 3.20424 2.00134 3.79029 1.41529C4.37634 0.82924 5.1712 0.5 6 0.5C6.8288 0.5 7.62366 0.82924 8.20971 1.41529C8.79576 2.00134 9.125 2.7962 9.125 3.625V8C9.125 8.8288 8.79576 9.62366 8.20971 10.2097C7.62366 10.7958 6.8288 11.125 6 11.125C5.1712 11.125 4.37634 10.7958 3.79029 10.2097C3.20424 9.62366 2.875 8.8288 2.875 8V3.625ZM6 1.75C5.50272 1.75 5.02581 1.94754 4.67417 2.29917C4.32254 2.65081 4.125 3.12772 4.125 3.625V8C4.125 8.49728 4.32254 8.97419 4.67417 9.32583C5.02581 9.67746 5.50272 9.875 6 9.875C6.49728 9.875 6.97419 9.67746 7.32583 9.32583C7.67746 8.97419 7.875 8.49728 7.875 8V3.625C7.875 3.12772 7.67746 2.65081 7.32583 2.29917C6.97419 1.94754 6.49728 1.75 6 1.75ZM1 7.375C1.16576 7.375 1.32473 7.44085 1.44194 7.55806C1.55915 7.67527 1.625 7.83424 1.625 8C1.625 9.16032 2.08594 10.2731 2.90641 11.0936C3.72688 11.9141 4.83968 12.375 6 12.375C7.16032 12.375 8.27312 11.9141 9.09359 11.0936C9.91406 10.2731 10.375 9.16032 10.375 8C10.375 7.83424 10.4408 7.67527 10.5581 7.55806C10.6753 7.44085 10.8342 7.375 11 7.375C11.1658 7.375 11.3247 7.44085 11.4419 7.55806C11.5592 7.67527 11.625 7.83424 11.625 8C11.6253 9.38381 11.1154 10.7192 10.193 11.7507C9.27055 12.7822 8.00024 13.4375 6.625 13.5912V14.875C6.625 15.0408 6.55915 15.1997 6.44194 15.3169C6.32473 15.4342 6.16576 15.5 6 15.5C5.83424 15.5 5.67527 15.4342 5.55806 15.3169C5.44085 15.1997 5.375 15.0408 5.375 14.875V13.5912C3.99976 13.4375 2.72945 12.7822 1.80701 11.7507C0.884572 10.7192 0.374734 9.38381 0.375 8C0.375 7.83424 0.440848 7.67527 0.558059 7.55806C0.675269 7.44085 0.83424 7.375 1 7.375Z" fill="black"/>
</svg>
