<svg width="30" height="29" viewBox="0 0 30 29" fill="none" xmlns="http://www.w3.org/2000/svg">
<g filter="url(#filter0_d_319_973)">
<path d="M14.9505 1.89886C15.7507 0.918174 17.2493 0.918173 18.0495 1.89886L19.997 4.2853C20.3718 4.74466 20.9312 5.01402 21.524 5.02069L24.604 5.05533C25.8697 5.06956 26.804 6.24116 26.5363 7.47829L25.8847 10.4888C25.7592 11.0682 25.8974 11.6735 26.2618 12.1412L28.1551 14.5708C28.9331 15.5692 28.5996 17.0302 27.4655 17.5922L24.7055 18.9598C24.1743 19.223 23.7872 19.7084 23.6488 20.2849L22.9296 23.2799C22.6341 24.5107 21.284 25.1609 20.1375 24.6246L17.3474 23.3194C16.8104 23.0682 16.1896 23.0682 15.6526 23.3194L12.8625 24.6246C11.716 25.1609 10.3659 24.5107 10.0704 23.2799L9.35123 20.2849C9.21281 19.7084 8.82573 19.223 8.29448 18.9598L5.53453 17.5922C4.40035 17.0302 4.0669 15.5692 4.84492 14.5708L6.73819 12.1412C7.10261 11.6735 7.24076 11.0682 7.11534 10.4888L6.46374 7.47829C6.19597 6.24116 7.13029 5.06956 8.39599 5.05533L11.476 5.02069C12.0688 5.01402 12.6282 4.74466 13.003 4.2853L14.9505 1.89886Z" fill="url(#paint0_linear_319_973)"/>
</g>
<path d="M11.3337 11.5042C11.1773 10.8891 11.2386 10.3535 11.5175 9.89743C11.7941 9.43229 12.2219 9.12614 12.8008 8.979C13.3797 8.83185 13.9018 8.89659 14.3669 9.1732C14.8297 9.44076 15.1393 9.8821 15.2957 10.4972C15.4543 11.1214 15.3953 11.666 15.1187 12.1311C14.8398 12.5872 14.4109 12.8889 13.832 13.036C13.253 13.1832 12.7322 13.1229 12.2693 12.8554C11.8042 12.5788 11.4923 12.1284 11.3337 11.5042ZM18.7818 7.61772L15.6937 18.4853L14.4725 18.7957L17.5606 7.9281L18.7818 7.61772ZM12.9939 9.73884C12.6864 9.81701 12.4697 9.98764 12.344 10.2507C12.225 10.5025 12.2184 10.8364 12.3242 11.2525C12.4299 11.6686 12.5963 11.9633 12.8234 12.1367C13.0595 12.3079 13.3313 12.3543 13.6388 12.2762C13.9464 12.198 14.163 12.0274 14.2888 11.7643C14.4122 11.4922 14.4222 11.1526 14.3187 10.7455C14.213 10.3294 14.0432 10.0403 13.8094 9.87826C13.5733 9.70714 13.3015 9.66067 12.9939 9.73884ZM17.9858 15.9093C17.8271 15.2852 17.8873 14.745 18.1662 14.2889C18.4428 13.8238 18.8706 13.5177 19.4495 13.3705C20.0284 13.2234 20.5459 13.2893 21.002 13.5682C21.4649 13.8357 21.7756 14.2816 21.9342 14.9057C22.0906 15.5208 22.0304 16.061 21.7538 16.5261C21.4863 16.989 21.063 17.2939 20.4841 17.4411C19.9052 17.5882 19.3843 17.528 18.9214 17.2605C18.4563 16.9839 18.1444 16.5335 17.9858 15.9093ZM19.6325 14.1474C19.3249 14.2255 19.1083 14.3962 18.9826 14.6592C18.8545 14.9133 18.8434 15.2484 18.9491 15.6645C19.0526 16.0715 19.2224 16.3606 19.4585 16.5317C19.6923 16.6938 19.9629 16.7357 20.2705 16.6576C20.5781 16.5794 20.7959 16.4133 20.9239 16.1593C21.0496 15.8962 21.0608 15.5611 20.9573 15.154C20.8515 14.7379 20.6818 14.4489 20.448 14.2868C20.2119 14.1157 19.94 14.0692 19.6325 14.1474Z" fill="white"/>
<defs>
<filter id="filter0_d_319_973" x="0.422119" y="1.16333" width="28.1558" height="27.6509" filterUnits="userSpaceOnUse" color-interpolation-filters="sRGB">
<feFlood flood-opacity="0" result="BackgroundImageFix"/>
<feColorMatrix in="SourceAlpha" type="matrix" values="0 0 0 0 0 0 0 0 0 0 0 0 0 0 0 0 0 0 127 0" result="hardAlpha"/>
<feOffset dx="-2" dy="2"/>
<feGaussianBlur stdDeviation="1"/>
<feComposite in2="hardAlpha" operator="out"/>
<feColorMatrix type="matrix" values="0 0 0 0 0 0 0 0 0 0 0 0 0 0 0 0 0 0 0.25 0"/>
<feBlend mode="normal" in2="BackgroundImageFix" result="effect1_dropShadow_319_973"/>
<feBlend mode="normal" in="SourceGraphic" in2="effect1_dropShadow_319_973" result="shape"/>
</filter>
<linearGradient id="paint0_linear_319_973" x1="16.5" y1="0" x2="16.5" y2="27" gradientUnits="userSpaceOnUse">
<stop stop-color="#9DFFAD"/>
<stop offset="1" stop-color="#1DAE35"/>
</linearGradient>
</defs>
</svg>
