<svg width="16" height="18" viewBox="0 0 16 18" fill="none" xmlns="http://www.w3.org/2000/svg">
<path d="M8 9C9.16032 9 10.2731 8.53906 11.0936 7.71859C11.9141 6.89812 12.375 5.78532 12.375 4.625C12.375 3.46468 11.9141 2.35188 11.0936 1.53141C10.2731 0.710936 9.16032 0.25 8 0.25C6.83968 0.25 5.72688 0.710936 4.90641 1.53141C4.08594 2.35188 3.625 3.46468 3.625 4.625C3.625 5.78532 4.08594 6.89812 4.90641 7.71859C5.72688 8.53906 6.83968 9 8 9ZM2.6875 10.25C2.10734 10.25 1.55094 10.4805 1.1407 10.8907C0.730468 11.3009 0.5 11.8573 0.5 12.4375V12.75C0.5 14.2456 1.45187 15.5106 2.80312 16.3706C4.16188 17.2356 6.00125 17.75 8 17.75C9.99875 17.75 11.8375 17.2356 13.1969 16.3706C14.5481 15.5106 15.5 14.2456 15.5 12.75V12.4375C15.5 11.8573 15.2695 11.3009 14.8593 10.8907C14.4491 10.4805 13.8927 10.25 13.3125 10.25H2.6875Z" fill="black"/>
</svg>
