<svg width="34" height="40" viewBox="0 0 34 34" fill="none" xmlns="http://www.w3.org/2000/svg">
<g clip-path="url(#clip0_715_1167)">
<path d="M17.0001 17C20.1309 17 22.6667 14.4641 22.6667 11.3333C22.6667 8.20246 20.1309 5.66663 17.0001 5.66663C13.8692 5.66663 11.3334 8.20246 11.3334 11.3333C11.3334 14.4641 13.8692 17 17.0001 17ZM17.0001 8.49996C18.5584 8.49996 19.8334 9.77496 19.8334 11.3333C19.8334 12.8916 18.5584 14.1666 17.0001 14.1666C15.4417 14.1666 14.1667 12.8916 14.1667 11.3333C14.1667 9.77496 15.4417 8.49996 17.0001 8.49996ZM17.0001 18.4166C13.2176 18.4166 5.66675 20.315 5.66675 24.0833V28.3333H28.3334V24.0833C28.3334 20.315 20.7826 18.4166 17.0001 18.4166ZM25.5001 25.5H8.50008V24.0975C8.78341 23.0775 13.1751 21.25 17.0001 21.25C20.8251 21.25 25.2167 23.0775 25.5001 24.0833V25.5Z" fill="white"/>
</g>
<defs>
<clipPath id="clip0_715_1167">
<rect width="34" height="34" fill="white"/>
</clipPath>
</defs>
</svg>
