<svg width="18" height="18" viewBox="0 0 18 18" fill="none" xmlns="http://www.w3.org/2000/svg">
<path d="M10.0624 6H8.99992V9.75L12.0316 11.655L12.5416 10.7475L10.0624 9.1875V6ZM9.70825 2.25C8.0175 2.25 6.39599 2.96116 5.20045 4.22703C4.0049 5.4929 3.33325 7.20979 3.33325 9H1.20825L4.01325 12.0225L6.87492 9H4.74992C4.74992 7.60761 5.27231 6.27226 6.20218 5.28769C7.13205 4.30312 8.39322 3.75 9.70825 3.75C11.0233 3.75 12.2845 4.30312 13.2143 5.28769C14.1442 6.27226 14.6666 7.60761 14.6666 9C14.6666 10.3924 14.1442 11.7277 13.2143 12.7123C12.2845 13.6969 11.0233 14.25 9.70825 14.25C8.34117 14.25 7.10159 13.6575 6.20909 12.705L5.20325 13.77C5.79231 14.4003 6.49407 14.9001 7.26757 15.24C8.04106 15.58 8.87077 15.7533 9.70825 15.75C11.399 15.75 13.0205 15.0388 14.2161 13.773C15.4116 12.5071 16.0833 10.7902 16.0833 9C16.0833 7.20979 15.4116 5.4929 14.2161 4.22703C13.0205 2.96116 11.399 2.25 9.70825 2.25Z" fill="white"/>
</svg>
