<svg width="86" height="40" viewBox="0 0 86 33" fill="none" xmlns="http://www.w3.org/2000/svg">
<rect x="0.5" y="0.5" width="85" height="32" rx="11.5" stroke="white"/>
<path d="M27.6387 20.1387C27.6387 19.9043 27.5801 19.6927 27.4629 19.5039C27.3457 19.3086 27.1211 19.1328 26.7891 18.9766C26.4635 18.8203 25.9818 18.6771 25.3438 18.5469C24.7839 18.4232 24.2695 18.2767 23.8008 18.1074C23.3385 17.9316 22.9414 17.7201 22.6094 17.4727C22.2773 17.2253 22.0202 16.9323 21.8379 16.5938C21.6556 16.2552 21.5645 15.8646 21.5645 15.4219C21.5645 14.9922 21.6589 14.5853 21.8477 14.2012C22.0365 13.8171 22.3066 13.4785 22.6582 13.1855C23.0098 12.8926 23.4362 12.6615 23.9375 12.4922C24.4453 12.3229 25.0117 12.2383 25.6367 12.2383C26.5221 12.2383 27.2806 12.388 27.9121 12.6875C28.5501 12.9805 29.0384 13.3809 29.377 13.8887C29.7155 14.39 29.8848 14.9564 29.8848 15.5879H27.5312C27.5312 15.3079 27.4596 15.0475 27.3164 14.8066C27.1797 14.5592 26.9714 14.3607 26.6914 14.2109C26.4115 14.0547 26.0599 13.9766 25.6367 13.9766C25.2331 13.9766 24.8978 14.0417 24.6309 14.1719C24.3704 14.2956 24.1751 14.4583 24.0449 14.6602C23.9212 14.862 23.8594 15.0833 23.8594 15.3242C23.8594 15.5 23.8919 15.6595 23.957 15.8027C24.0286 15.9395 24.1458 16.0664 24.3086 16.1836C24.4714 16.2943 24.6927 16.3984 24.9727 16.4961C25.2591 16.5938 25.6172 16.6882 26.0469 16.7793C26.8542 16.9486 27.5475 17.1667 28.127 17.4336C28.7129 17.694 29.1621 18.0326 29.4746 18.4492C29.7871 18.8594 29.9434 19.3802 29.9434 20.0117C29.9434 20.4805 29.8424 20.9102 29.6406 21.3008C29.4453 21.6849 29.1589 22.0202 28.7812 22.3066C28.4036 22.5866 27.9512 22.8047 27.4238 22.9609C26.903 23.1172 26.3171 23.1953 25.666 23.1953C24.709 23.1953 23.8984 23.026 23.2344 22.6875C22.5703 22.3424 22.0658 21.903 21.7207 21.3691C21.3822 20.8288 21.2129 20.2689 21.2129 19.6895H23.4883C23.5143 20.1257 23.6348 20.474 23.8496 20.7344C24.071 20.9883 24.3444 21.1738 24.6699 21.291C25.002 21.4017 25.3438 21.457 25.6953 21.457C26.1185 21.457 26.4733 21.4017 26.7598 21.291C27.0462 21.1738 27.2643 21.0176 27.4141 20.8223C27.5638 20.6204 27.6387 20.3926 27.6387 20.1387ZM34.3481 8V23H32.0044V8H34.3481ZM33.938 17.3262L33.1763 17.3164C33.1828 16.5872 33.2837 15.9134 33.479 15.2949C33.6808 14.6764 33.9608 14.1393 34.3188 13.6836C34.6834 13.2214 35.1196 12.8665 35.6274 12.6191C36.1352 12.3652 36.6984 12.2383 37.3169 12.2383C37.8377 12.2383 38.3065 12.3099 38.7231 12.4531C39.1463 12.5964 39.5109 12.8275 39.8169 13.1465C40.1229 13.459 40.354 13.8691 40.5102 14.377C40.673 14.8783 40.7544 15.4902 40.7544 16.2129V23H38.3911V16.1934C38.3911 15.6855 38.3162 15.2819 38.1665 14.9824C38.0233 14.6829 37.8117 14.4681 37.5317 14.3379C37.2518 14.2012 36.91 14.1328 36.5063 14.1328C36.0832 14.1328 35.7088 14.2174 35.3833 14.3867C35.0643 14.556 34.7973 14.7871 34.5825 15.0801C34.3677 15.373 34.2049 15.7116 34.0942 16.0957C33.9901 16.4798 33.938 16.89 33.938 17.3262ZM42.708 17.834V17.6094C42.708 16.8477 42.8186 16.1413 43.04 15.4902C43.2614 14.8327 43.5804 14.263 43.997 13.7812C44.4202 13.293 44.9345 12.9154 45.54 12.6484C46.152 12.375 46.8421 12.2383 47.6103 12.2383C48.3851 12.2383 49.0752 12.375 49.6806 12.6484C50.2926 12.9154 50.8102 13.293 51.2334 13.7812C51.6565 14.263 51.9788 14.8327 52.2002 15.4902C52.4215 16.1413 52.5322 16.8477 52.5322 17.6094V17.834C52.5322 18.5957 52.4215 19.3021 52.2002 19.9531C51.9788 20.6042 51.6565 21.1738 51.2334 21.6621C50.8102 22.1439 50.2959 22.5215 49.6904 22.7949C49.0849 23.0618 48.3981 23.1953 47.6298 23.1953C46.8551 23.1953 46.1617 23.0618 45.5498 22.7949C44.9443 22.5215 44.43 22.1439 44.0068 21.6621C43.5836 21.1738 43.2614 20.6042 43.04 19.9531C42.8186 19.3021 42.708 18.5957 42.708 17.834ZM45.0615 17.6094V17.834C45.0615 18.3092 45.1103 18.7585 45.208 19.1816C45.3056 19.6048 45.4586 19.9759 45.667 20.2949C45.8753 20.6139 46.1422 20.8646 46.4677 21.0469C46.7933 21.2292 47.1806 21.3203 47.6298 21.3203C48.066 21.3203 48.4436 21.2292 48.7627 21.0469C49.0882 20.8646 49.3551 20.6139 49.5634 20.2949C49.7718 19.9759 49.9248 19.6048 50.0224 19.1816C50.1266 18.7585 50.1787 18.3092 50.1787 17.834V17.6094C50.1787 17.1406 50.1266 16.6979 50.0224 16.2812C49.9248 15.8581 49.7685 15.4837 49.5537 15.1582C49.3453 14.8327 49.0784 14.5788 48.7529 14.3965C48.4339 14.2077 48.053 14.1133 47.6103 14.1133C47.1676 14.1133 46.7835 14.2077 46.458 14.3965C46.139 14.5788 45.8753 14.8327 45.667 15.1582C45.4586 15.4837 45.3056 15.8581 45.208 16.2812C45.1103 16.6979 45.0615 17.1406 45.0615 17.6094ZM56.8881 14.4648V27.0625H54.5346V12.4336H56.7026L56.8881 14.4648ZM63.7729 17.6191V17.8242C63.7729 18.5924 63.6817 19.3053 63.4995 19.9629C63.3237 20.6139 63.06 21.1836 62.7084 21.6719C62.3634 22.1536 61.937 22.528 61.4291 22.7949C60.9213 23.0618 60.3354 23.1953 59.6713 23.1953C59.0138 23.1953 58.4376 23.0749 57.9428 22.834C57.4545 22.5866 57.0411 22.2383 56.7026 21.7891C56.364 21.3398 56.0906 20.8125 55.8823 20.207C55.6804 19.5951 55.5372 18.9245 55.4526 18.1953V17.4043C55.5372 16.6296 55.6804 15.9264 55.8823 15.2949C56.0906 14.6634 56.364 14.1198 56.7026 13.6641C57.0411 13.2083 57.4545 12.8568 57.9428 12.6094C58.4311 12.362 59.0008 12.2383 59.6518 12.2383C60.3159 12.2383 60.9051 12.3685 61.4194 12.6289C61.9337 12.8828 62.3666 13.2474 62.7182 13.7227C63.0698 14.1914 63.3334 14.7578 63.5092 15.4219C63.685 16.0794 63.7729 16.8118 63.7729 17.6191ZM61.4194 17.8242V17.6191C61.4194 17.1309 61.3738 16.6784 61.2827 16.2617C61.1915 15.8385 61.0483 15.4674 60.853 15.1484C60.6577 14.8294 60.407 14.582 60.101 14.4062C59.8015 14.224 59.4402 14.1328 59.017 14.1328C58.6004 14.1328 58.2423 14.2044 57.9428 14.3477C57.6433 14.4844 57.3927 14.6764 57.1909 14.9238C56.989 15.1712 56.8328 15.4609 56.7221 15.793C56.6114 16.1185 56.5333 16.4733 56.4877 16.8574V18.752C56.5659 19.2207 56.6993 19.6504 56.8881 20.041C57.0769 20.4316 57.3439 20.7441 57.6889 20.9785C58.0405 21.2064 58.4897 21.3203 59.0366 21.3203C59.4597 21.3203 59.8211 21.2292 60.1205 21.0469C60.42 20.8646 60.6642 20.6139 60.853 20.2949C61.0483 19.9694 61.1915 19.5951 61.2827 19.1719C61.3738 18.7487 61.4194 18.2995 61.4194 17.8242Z" fill="white"/>
</svg>
